<svg id="Icons" xmlns="http://www.w3.org/2000/svg" viewBox="0 0 288 288"><defs><style>.cls-1{fill:#b9ced9;}.cls-2{fill:#a1bdcc;}.cls-3{fill:#8aadbf;}.cls-4{fill:#789eb2;}.cls-5{fill:none;}.cls-6{fill:#f80000;}.cls-7{fill:#fff;}</style></defs><title>Campaign_Oracle-Database-Appliance-Campaign_Detailed</title><g id="db-logobox"><path class="cls-1" d="M100.5,66.1c-29,0-52.5-4.052-52.5-9.051V154.81c0,5,23.5,9.052,52.5,9.052s52.5-4.053,52.5-9.052V57.052C153,62.051,129.5,66.1,100.5,66.1Z"/><path class="cls-2" d="M48,57.052V154.81c0,5,23.5,9.052,52.5,9.052V66.1C71.505,66.1,48,62.051,48,57.052Z"/><path class="cls-2" d="M145.759,61.642V159.4c4.6-1.345,7.241-2.914,7.241-4.589V57.052C153,58.727,150.36,60.3,145.759,61.642Z"/><ellipse class="cls-3" cx="100.5" cy="57.052" rx="52.5" ry="9.052"/><path class="cls-4" d="M48,118.6c0,5,23.5,9.052,52.5,9.052S153,123.6,153,118.6v7.242c0,5-23.5,9.052-52.5,9.052S48,130.844,48,125.845Z"/><path class="cls-4" d="M153,86.017c0,5-23.5,9.052-52.5,9.052S48,91.016,48,86.017v7.242c0,5,23.5,9.051,52.5,9.051S153,98.258,153,93.259Z"/><rect class="cls-5" width="288" height="288"/><rect class="cls-6" x="114" y="114" width="126" height="126" rx="12" ry="12"/><path class="cls-7" d="M172.41,152.984v36.84c0,8.379-6.783,11.97-13.9,11.97-14.032,0-14.63-5.852-14.63-16.757h10.241c0,3.857-.864,9.575,4.389,9.575a4.046,4.046,0,0,0,3.856-4.123v-37.5Z"/><path class="cls-7" d="M194.022,201.794c-12.434,0-14.762-7.315-14.23-15.627h10.041c0,4.589.2,8.445,5.719,8.445,3.391,0,5.054-2.194,5.054-5.453,0-8.644-20.215-9.177-20.215-23.473,0-7.514,3.59-13.5,15.826-13.5,9.775,0,14.63,4.388,13.965,14.43h-9.776c0-3.592-.6-7.249-4.654-7.249-3.259,0-5.188,1.8-5.188,5.121,0,9.11,20.216,8.312,20.216,23.407C210.78,200.331,201.67,201.794,194.022,201.794Z"/></g></svg>